<svg xmlns="http://www.w3.org/2000/svg" width="605" height="122" viewBox="0 0 605 122" fill="none"><path d="M44.087 20.193c-12.902 0-23.657 10.012-23.657 22.765v4.638a5.02 5.02 0 0 1-1.496 3.57 5.138 5.138 0 0 1-3.612 1.478 5.138 5.138 0 0 1-3.611-1.478 5.02 5.02 0 0 1-1.496-3.57V43.8c0-18.784 15.72-33.703 34.724-33.703h104.283c1.355 0 2.654.531 3.612 1.478a5.022 5.022 0 0 1 1.496 3.57 5.022 5.022 0 0 1-1.496 3.57 5.139 5.139 0 0 1-3.612 1.478h-43.413c-2.821 0-5.363 1.897-5.363 4.686v15.507H90.231V24.88a4.49 4.49 0 0 0-.326-1.845 4.535 4.535 0 0 0-1.053-1.557 4.599 4.599 0 0 0-1.6-1.004 4.64 4.64 0 0 0-1.873-.28H44.087Z" fill="url(#a)"/><path d="M64.694 66.285a15.524 15.524 0 0 1 1.17-6.03 15.669 15.669 0 0 1 3.422-5.125 15.878 15.878 0 0 1 5.151-3.433 16.025 16.025 0 0 1 6.09-1.214h32.688a16.248 16.248 0 0 1 11.377 4.61 15.874 15.874 0 0 1 4.796 11.192v17.012H64.694V66.286Z" fill="url(#b)"/><path d="M38.625 102.967a15.283 15.283 0 0 0-1.17 5.966V122h119.173v-13.067a15.635 15.635 0 0 0-4.782-11.056 16.007 16.007 0 0 0-11.287-4.484H53.188a15.78 15.78 0 0 0-6.036 1.152 15.634 15.634 0 0 0-5.119 3.365 15.427 15.427 0 0 0-3.408 5.057Z" fill="url(#c)"/><path fill-rule="evenodd" clip-rule="evenodd" d="M206.909 41.097 244.376 122h1.124c.083-.917.375-2.167.874-3.751a80.464 80.464 0 0 1 1.999-5.127 702.7 702.7 0 0 1 1.998-4.627c.667-1.417 1.083-2.376 1.25-2.876l29.148-64.522h.081c1.333-2.834 2.998-4.835 4.997-6.002 2.082-1.25 4.039-1.876 5.871-1.876h1.124v-1.25h-26.731v1.25h1.124c1.582 0 3.039.709 4.372 2.126 1.332 1.334 1.457 3.251.375 5.752h.014l-22.001 51.591-21.169-51.591h.06c-.916-2.501-.791-4.418.375-5.752 1.249-1.417 2.665-2.126 4.247-2.126h1.124v-1.25H194.91v1.25h.999c1.915 0 3.872.625 5.871 1.876 2.082 1.167 3.789 3.168 5.122 6.002h.007Zm115.98 78.402h-28.356v-1.25h1.624c2.165 0 3.997-.751 5.496-2.251 1.583-1.584 2.415-3.46 2.499-5.627V41.097c-.084-2.168-.916-4.002-2.499-5.502-1.499-1.584-3.331-2.376-5.496-2.376h-1.624v-1.25h47.592a46.31 46.31 0 0 0 5.746-.375 84.775 84.775 0 0 0 5.746-.876c1.749-.333 2.998-.667 3.748-1V51.6h-1.249v-1.5c0-3.835-1.166-6.919-3.498-9.253-1.891-1.963-4.371-3.13-7.44-3.501h-22.289v36.387h16.488c3.082-.083 5.621-1.125 7.62-3.126 1.999-2.084 2.998-4.668 2.998-7.752v-.876h1.249V90.74h-1.249v-1c0-3.085-.999-5.627-2.998-7.628-1.999-2-4.538-3.043-7.62-3.126h-16.488v35.137h16.363c4.164 0 7.828-.792 10.993-2.376 3.164-1.667 5.871-4.001 8.119-7.002 2.249-3.084 4.039-6.71 5.371-10.879h1.25l-5.746 25.634h-36.35Zm77.188-87.53h16.113c3.748 0 7.412.416 10.993 1.25 3.581.834 6.745 2.168 9.493 4.002 2.832 1.834 5.08 4.251 6.746 7.252 1.665 3.001 2.498 6.71 2.498 11.129 0 3.501-.75 7.002-2.249 10.504-1.415 3.417-3.622 6.377-6.62 8.878-2.998 2.417-6.87 3.876-11.617 4.376 2.665.834 5.08 2.334 7.245 4.502 2.248 2.167 4.081 4.335 5.496 6.502.083.167.542.917 1.374 2.25a140.049 140.049 0 0 1 3.248 5.002 826.936 826.936 0 0 0 4.122 5.878c1.416 2 2.707 3.751 3.873 5.251 1.832 2.251 3.497 4.085 4.996 5.502 1.499 1.334 3.081 2.334 4.747 3.001 1.665.584 3.581.917 5.746 1.001h.169c2.165 0 3.997-.751 5.496-2.251 1.582-1.584 2.415-3.46 2.498-5.627V41.097c-.083-2.168-.916-4.002-2.498-5.502-1.499-1.584-3.331-2.376-5.496-2.376h-1.624v-1.25h47.592c1.832 0 3.747-.125 5.746-.375a84.872 84.872 0 0 0 5.746-.876c1.749-.333 2.998-.667 3.747-1V51.6h-1.249v-1.5c0-3.835-1.166-6.919-3.497-9.253-1.891-1.963-4.372-3.13-7.441-3.501h-22.289v36.387h16.489c3.081-.083 5.621-1.125 7.619-3.126 1.999-2.084 2.998-4.668 2.998-7.752v-.876h1.25V90.74h-1.25v-1c0-3.085-.999-5.627-2.998-7.628-1.998-2-4.538-3.043-7.619-3.126h-16.489v35.137h16.364c4.164 0 7.828-.792 10.992-2.376 3.165-1.667 5.871-4.001 8.12-7.002 2.248-3.084 4.038-6.71 5.371-10.879h1.249l-5.746 25.634h-75.492c-4.497 0-8.577-.375-12.241-1.125-3.664-.834-6.912-2.209-9.744-4.127-2.831-1.917-5.288-4.501-7.369-7.752-.667-1.001-1.416-2.251-2.249-3.752-.749-1.584-1.541-3.25-2.373-5.001a139.827 139.827 0 0 0-2.499-5.002 489.322 489.322 0 0 1-1.998-4.502c-.583-1.334-.999-2.376-1.249-3.126-1.083-2.667-2.374-4.668-3.873-6.002-1.415-1.334-2.956-2.126-4.621-2.376v-1.25h3.872c2.248 0 4.414-.459 6.495-1.376 2.166-.917 4.081-2.417 5.746-4.501 1.666-2.084 2.832-4.96 3.498-8.628.167-.75.291-1.626.375-2.626.166-1 .208-2.126.125-3.376-.25-6.002-1.749-10.379-4.497-13.13-2.748-2.834-6.163-4.293-10.243-4.376a29.958 29.958 0 0 0-3.872 0H401.7v72.9c0 2.167.792 4.043 2.374 5.627 1.582 1.5 3.456 2.251 5.621 2.251h1.499v1.25h-37.849v-1.25h1.624c2.165 0 3.997-.751 5.496-2.251 1.582-1.584 2.415-3.46 2.498-5.627V41.097c-.083-2.168-.916-4.002-2.498-5.502-1.499-1.584-3.331-2.376-5.496-2.376h-1.624v-1.25h26.732Zm173.028-1.751c1.666 0 3.706.084 6.121.25 2.498.167 5.038.417 7.62.75.844.08 1.65.163 2.418.25h8.699l-.142 1.494.017.007-1.499 16.88h-1.249c0-4.334-1.624-7.793-4.871-10.378-3.165-2.667-7.412-4.001-12.742-4.001-4.83 0-8.744 1.167-11.742 3.501-2.914 2.334-4.455 5.169-4.621 8.503-.084 2.501.708 4.668 2.373 6.502 1.666 1.834 3.789 3.543 6.371 5.127l23.858 15.506c3.831 2.167 6.704 5.001 8.619 8.503 1.999 3.5 2.873 7.586 2.623 12.254-.416 8.169-3.539 14.546-9.368 19.131-5.829 4.502-13.741 6.753-23.734 6.753-3.664 0-7.245-.334-10.742-1.001-3.415-.583-6.454-1.417-9.119-2.5-2.665-1.168-4.788-2.543-6.371-4.127-.666-1.834-.957-4.043-.874-6.627.083-2.584.458-5.21 1.124-7.878.75-2.668 1.666-4.877 2.748-6.627h1.125c-.334 4.251.416 8.211 2.248 11.879 1.915 3.584 4.663 6.46 8.244 8.628 3.664 2.084 7.995 3.084 12.991 3.001 5.497-.083 9.744-1.459 12.741-4.127 2.998-2.75 4.497-6.043 4.497-9.878 0-2.584-.791-4.918-2.373-7.002-1.499-2.084-3.997-4.085-7.495-6.002l-21.86-14.505c-4.413-2.501-7.619-5.71-9.618-9.629-1.999-3.918-2.79-8.17-2.373-12.754.416-4.335 1.707-8.128 3.872-11.38 2.165-3.334 5.121-5.918 8.869-7.752 3.83-1.834 8.369-2.75 13.615-2.75Z" fill="#222"/><defs><linearGradient id="a" x1="96.19" y1="0" x2="96.19" y2="195.481" gradientUnits="userSpaceOnUse"><stop stop-color="#222"/><stop offset="1" stop-color="#222" stop-opacity="0"/></linearGradient><linearGradient id="b" x1="96.19" y1="0" x2="96.19" y2="195.481" gradientUnits="userSpaceOnUse"><stop stop-color="#222"/><stop offset="1" stop-color="#222" stop-opacity="0"/></linearGradient><linearGradient id="c" x1="96.19" y1="0" x2="96.19" y2="195.481" gradientUnits="userSpaceOnUse"><stop stop-color="#222"/><stop offset="1" stop-color="#222" stop-opacity="0"/></linearGradient></defs></svg>